# xmcd CD database file
#
# Track frame offsets:
#	150
#	58051
#	101582
#	165784
#	216956
#	265502
#
# Disc length: 4175 seconds
#
# Revision: 0
# Processed by: cddbd v1.5.1PL0 Copyright (c) Steve Scherf et al.
# Submitted via: CDex 1.51
#
DISCID=47104d06
DTITLE=George Benson Quartet - Witchcraft
DYEAR=1973
DGENRE=Jazz
TTITLE0=All Blues
TTITLE1=Witchcraft
TTITLE2=Love For Sale
TTITLE3=li'l Darlin'
TTITLE4=There Will Never Be Another You
TTITLE5=Oleo
EXTD=YEAR: 1973
EXTT0=
EXTT1=
EXTT2=
EXTT3=
EXTT4=
EXTT5=
PLAYORDER=
